<svg xmlns="http://www.w3.org/2000/svg" width="30" height="30" viewBox="0 0 30 30">
  <defs>
    <style>
      .cls-1 {
        fill: #fff;
      }
    </style>
  </defs>
  <g id="组_456" data-name="组 456" transform="translate(-14.223 -2.432)">
    <path id="联合_23" data-name="联合 23" class="cls-1" d="M-1997.778-250.568a2.962,2.962,0,0,1-3-2.923v-22.136a2.962,2.962,0,0,1,3-2.923h3.073v-.835a1.2,1.2,0,0,1,1.175-1.176,1.2,1.2,0,0,1,1.246,1.1l0,.072v.835h13v-.835a1.2,1.2,0,0,1,1.212-1.182,1.2,1.2,0,0,1,1.21,1.11l0,.072v.835h3.073a2.965,2.965,0,0,1,3,2.823l0,.1v22.136a2.962,2.962,0,0,1-3,2.923Zm-.428-2.923a.421.421,0,0,0,.378.414l.05,0h24a.423.423,0,0,0,.428-.418v-15.735h-24.857Zm0-22.136v4.039h24.857v-4.039a.423.423,0,0,0-.378-.415l-.05,0h-3.074v.835a1.2,1.2,0,0,1-1.175,1.171,1.2,1.2,0,0,1-1.246-1.1l0-.072v-.835h-13v.835a1.2,1.2,0,0,1-1.175,1.171,1.2,1.2,0,0,1-1.246-1.1l0-.072v-.835h-3.073A.423.423,0,0,0-1998.206-275.628Zm11.571,18.858a1.285,1.285,0,0,1-1.286-1.285,1.286,1.286,0,0,1,1.286-1.286h1.715a1.286,1.286,0,0,1,1.285,1.286,1.285,1.285,0,0,1-1.285,1.285Zm-7.285,0a1.286,1.286,0,0,1-1.286-1.285,1.286,1.286,0,0,1,1.286-1.286h1.714a1.286,1.286,0,0,1,1.285,1.286,1.285,1.285,0,0,1-1.285,1.285Zm14.571-6a1.286,1.286,0,0,1-1.285-1.286,1.285,1.285,0,0,1,1.285-1.285h1.714a1.286,1.286,0,0,1,1.286,1.285,1.286,1.286,0,0,1-1.286,1.286Zm-7.286,0a1.286,1.286,0,0,1-1.286-1.286,1.286,1.286,0,0,1,1.286-1.285h1.715a1.285,1.285,0,0,1,1.285,1.285,1.286,1.286,0,0,1-1.285,1.286Zm-7.285,0a1.286,1.286,0,0,1-1.286-1.286,1.286,1.286,0,0,1,1.286-1.285h1.714a1.285,1.285,0,0,1,1.285,1.285,1.286,1.286,0,0,1-1.285,1.286Z" transform="translate(2015 283)"/>
  </g>
</svg>
