<svg xmlns="http://www.w3.org/2000/svg" width="29.989" height="29.994" viewBox="0 0 29.989 29.994">
  <defs>
    <style>
      .cls-1 {
        fill: #fff;
      }
    </style>
  </defs>
  <g id="组_457" data-name="组 457" transform="translate(-27.313 -0.006)">
    <path id="联合_24" data-name="联合 24" class="cls-1" d="M-1986.6-335.543c.029-1.122-.012-2.245.046-3.368a1.027,1.027,0,0,1,1.186-1.072,1.053,1.053,0,0,1,1.069,1.19v.8c.012.9.012,1.805.012,2.768h24.2V-360.79h-24.2c0,1.558.051,3.128-.035,4.69a1.509,1.509,0,0,1-.78,1.062c-.279.13-.847-.1-1.173-.32a1.224,1.224,0,0,1-.306-.879c-.029-1.5-.058-2.994,0-4.491.059-1.523.939-2.255,2.645-2.264,3.389-.016,6.778,0,10.167,0h13.134c2.181,0,2.939.73,2.939,2.805v24.46c0,1.959-.787,2.694-2.871,2.694-7.766,0-15.533-.035-23.3.027h-.035A2.408,2.408,0,0,1-1986.6-335.543Zm6.275-5.64a7.083,7.083,0,0,1,3.667-5.733c.139-.086.29-.153.528-.282a4.9,4.9,0,0,1-1.8-4.921,4.8,4.8,0,0,1,2.062-2.98,6.23,6.23,0,0,1,7.6.444c1.719,1.578,2.641,4.674-.259,7.462a7.413,7.413,0,0,1,4.139,5.608c.157,1.035-.206,1.643-1.022,1.7s-1.225-.336-1.312-1.255a4.886,4.886,0,0,0-2.867-4.162c-3.542-1.737-8.068.171-8.377,4.065-.048.585-.114,1.145-.87,1.322a1.688,1.688,0,0,1-.386.047A1.1,1.1,0,0,1-1980.327-341.183Zm4.559-9.857a3.379,3.379,0,0,0,3.484,3.015,3.344,3.344,0,0,0,3.333-3.086,3.38,3.38,0,0,0-3.408-3.017A3.372,3.372,0,0,0-1975.767-351.04Zm-9.727,8.658a7.567,7.567,0,0,1-1.1-.007c-.647-.094-1.1-.411-1.093-1.056a.9.9,0,0,1,.282-.7,1.128,1.128,0,0,1,.756-.311,15.893,15.893,0,0,1,2.449,0,1.039,1.039,0,0,1,1.064,1.008c.013.611-.433.98-1.094,1.07q-.308.018-.616.018Q-1985.17-342.361-1985.495-342.382Zm-1.109-4.109a1.008,1.008,0,0,1-1.081-.978.923.923,0,0,1,.982-1.033,23.741,23.741,0,0,1,2.556,0,.951.951,0,0,1,1.014,1.02,1.041,1.041,0,0,1-1.166.986c-.375.013-.743.008-1.113.006-.265,0-.53.008-.8.008C-1986.339-346.483-1986.471-346.485-1986.6-346.491Zm1.215-4.09c-.426,0-.852.031-1.274,0-.658-.066-1.039-.4-1.021-1.017.021-.633.425-.981,1.129-1,.765-.02,1.534-.015,2.3,0a1.023,1.023,0,0,1,1.116.951c.049.555-.3.967-.975,1.048-.419.047-.851.04-1.273.056Z" transform="translate(2015 363.006)"/>
  </g>
</svg>
