<svg xmlns="http://www.w3.org/2000/svg" width="30" height="30" viewBox="0 0 30 30">
  <defs>
    <style>
      .cls-1 {
        fill: #fff;
      }
    </style>
  </defs>
  <path id="路径_187" data-name="路径 187" class="cls-1" d="M97.811,0H78.269A3.928,3.928,0,0,0,74.08,3.6V7.793H72v2.4h2.08v3.6H72v2.4h2.08v3.6H72v2.4h2.08V26.4A3.928,3.928,0,0,0,78.269,30H97.811A3.928,3.928,0,0,0,102,26.4V3.6A3.928,3.928,0,0,0,97.811,0ZM78.271,27.6a1.309,1.309,0,0,1-1.4-1.2V22.207h2.08V19.8h-2.08V16.2h2.08V13.8h-2.08V10.2h2.08v-2.4h-2.08V3.6a1.309,1.309,0,0,1,1.4-1.2H92.25V27.6ZM99.2,26.4a1.309,1.309,0,0,1-1.4,1.2H95.045V2.4h2.763a1.309,1.309,0,0,1,1.4,1.2V26.4Z" transform="translate(-72)"/>
</svg>
