<svg id="组_458" data-name="组 458" xmlns="http://www.w3.org/2000/svg" width="30" height="30" viewBox="0 0 30 30">
  <defs>
    <style>
      .cls-1 {
        fill: #fff;
      }
    </style>
  </defs>
  <path id="路径_194" data-name="路径 194" class="cls-1" d="M26.538,413.427H3.462A3.576,3.576,0,0,1,0,409.755V397.517a3.576,3.576,0,0,1,3.462-3.671H4.615a1.226,1.226,0,0,1,0,2.448H3.462a1.192,1.192,0,0,0-1.154,1.224v12.238a1.192,1.192,0,0,0,1.154,1.224H26.538a1.192,1.192,0,0,0,1.154-1.224V397.517a1.192,1.192,0,0,0-1.154-1.224H25.385a1.226,1.226,0,0,1,0-2.448h1.154A3.576,3.576,0,0,1,30,397.517v12.238A3.576,3.576,0,0,1,26.538,413.427Z" transform="translate(0 -383.427)"/>
  <path id="路径_195" data-name="路径 195" class="cls-1" d="M24.379,511.394a3.3,3.3,0,0,1-1.535-.379L10.32,504.426a1.26,1.26,0,0,1-.521-1.64,1.122,1.122,0,0,1,1.544-.553l12.523,6.589a1.1,1.1,0,0,0,1.023,0l12.523-6.589a1.122,1.122,0,0,1,1.544.553,1.26,1.26,0,0,1-.521,1.64l-12.523,6.589A3.306,3.306,0,0,1,24.379,511.394Z" transform="translate(-9.379 -487.763)"/>
  <path id="路径_196" data-name="路径 196" class="cls-1" d="M136.28,0H122.685a4.73,4.73,0,0,0-4.531,4.9V17.819h2.266V4.9a2.369,2.369,0,0,1,2.266-2.448H136.28A2.369,2.369,0,0,1,138.545,4.9V17.819h2.266V4.9A4.738,4.738,0,0,0,136.28,0Z" transform="translate(-114.483 0)"/>
  <path id="路径_197" data-name="路径 197" class="cls-1" d="M322.369,198.031h-6.305a1.224,1.224,0,1,1,0-2.448h6.3a1.224,1.224,0,1,1,0,2.448Z" transform="translate(-305.828 -189.882)"/>
</svg>
