<svg xmlns="http://www.w3.org/2000/svg" width="30" height="26" viewBox="0 0 30 26">
  <defs>
    <style>
      .cls-1 {
        fill: #fff;
      }
    </style>
  </defs>
  <path id="路径_193" data-name="路径 193" class="cls-1" d="M25.75,4.586m-1.429,0A1.429,1.429,0,1,0,25.75,3.142a1.437,1.437,0,0,0-1.429,1.444ZM28.25,0H1.821A1.775,1.775,0,0,0,.536.516,1.816,1.816,0,0,0,0,1.806V19.861a1.816,1.816,0,0,0,.536,1.29,1.775,1.775,0,0,0,1.286.516H13.964v2.167H4.286V26H25.714V23.833H16.107V21.667H28.25A1.8,1.8,0,0,0,30,19.861V1.806A1.8,1.8,0,0,0,28.25,0Zm-.393,19.5H2.143V2.167H27.857ZM9.243,17.333H20.821a.713.713,0,0,0,.54-.332.729.729,0,0,0,.068-.635,9.67,9.67,0,0,0-3.243-4.759,4.368,4.368,0,0,0-.151-6.049,4.252,4.252,0,0,0-5.984,0,4.368,4.368,0,0,0-.151,6.049,9.65,9.65,0,0,0-3.243,4.752.729.729,0,0,0,.057.632.714.714,0,0,0,.529.343Z" transform="translate(0 0)"/>
</svg>
