<svg xmlns="http://www.w3.org/2000/svg" width="30" height="30" viewBox="0 0 30 30">
  <defs>
    <style>
      .cls-1 {
        fill: #fff;
      }
    </style>
  </defs>
  <path id="路径_186" data-name="路径 186" class="cls-1" d="M65.892,112.64H46.028c-2.8.009-5.069,2.645-5.068,5.893v14.174c0,3.248,2.266,5.885,5.068,5.893H46.5a.055.055,0,0,1,.051.048l.325,1.706a2.824,2.824,0,0,0,1.529,2.084,2.217,2.217,0,0,0,2.344-.315l4.372-3.511a.048.048,0,0,1,.03-.011H65.892c2.8-.009,5.069-2.645,5.068-5.893V118.533C70.961,115.285,68.694,112.649,65.892,112.64ZM68.5,132.707a2.853,2.853,0,0,1-2.612,3.038H55.155a2.263,2.263,0,0,0-1.425.516l-4.372,3.512a.046.046,0,0,1-.049.007.059.059,0,0,1-.032-.043l-.325-1.706a2.61,2.61,0,0,0-2.448-2.285h-.476a2.853,2.853,0,0,1-2.612-3.038V118.533a2.853,2.853,0,0,1,2.612-3.038H65.892a2.853,2.853,0,0,1,2.612,3.038v14.174Zm-17.981-8.421a1.6,1.6,0,0,0-1.468,1.13,2.057,2.057,0,0,0,.34,2,1.431,1.431,0,0,0,1.728.4,1.861,1.861,0,0,0,.98-1.7A1.723,1.723,0,0,0,50.523,124.286Zm5.927,0a1.6,1.6,0,0,0-1.468,1.131,2.057,2.057,0,0,0,.34,2,1.431,1.431,0,0,0,1.728.4,1.861,1.861,0,0,0,.98-1.7,1.723,1.723,0,0,0-1.58-1.838Zm5.7,0a1.6,1.6,0,0,0-1.468,1.131,2.057,2.057,0,0,0,.34,2,1.431,1.431,0,0,0,1.728.4,1.861,1.861,0,0,0,.98-1.7,1.723,1.723,0,0,0-1.58-1.838Z" transform="translate(-40.96 -112.64)"/>
</svg>
