<?xml version="1.0" standalone="no"?><!DOCTYPE svg PUBLIC "-//W3C//DTD SVG 1.1//EN" "http://www.w3.org/Graphics/SVG/1.1/DTD/svg11.dtd"><svg t="1625216309427" class="icon" viewBox="0 0 1024 1024" version="1.1" xmlns="http://www.w3.org/2000/svg" p-id="51425" xmlns:xlink="http://www.w3.org/1999/xlink" width="128" height="128"><defs><style type="text/css"></style></defs><path d="M768 181.333c16.41 0 29.936 12.354 31.785 28.268l0.215 3.732-0.01 160.448 118.04-99.572c19.902-16.791 49.89-3.99 52.46 20.979l0.177 3.479v426.666c0 26.04-29.123 40.703-49.863 26.566l-2.773-2.108-118.042-99.594 0.011 160.47c0 16.41-12.353 29.936-28.268 31.784l-3.732 0.216H85.333c-16.41 0-29.936-12.354-31.784-28.268l-0.216-3.732V213.333c0-16.41 12.354-29.936 28.268-31.784l3.732-0.216H768z m-32 63.979H117.312v533.344H736V245.312zM906.656 367.52L800 457.504v108.96l106.656 89.984V367.52z m-526.747 10.852l3.244 2.378 128 106.667c14.328 11.94 15.283 33.277 2.865 46.47l-2.865 2.696-128 106.667c-13.577 11.314-33.755 9.48-45.07-4.097-10.443-12.533-9.684-30.69 1.174-42.308l2.924-2.761L440.672 512l-98.491-82.084c-12.533-10.443-15.06-28.44-6.476-41.825l2.379-3.244c10.443-12.532 28.44-15.06 41.825-6.475z" fill="#333333" p-id="51426"></path></svg>